<svg width="233" height="144" viewBox="0 0 233 144" fill="none" xmlns="http://www.w3.org/2000/svg">
<rect x="0.5" y="0.5" width="256.25" height="143" rx="5.5" fill="white"/>
<rect x="0.5" y="0.5" width="256.25" height="143" rx="5.5" stroke="#E8E8E8"/>
<path d="M25.5921 79V56.3969L18.3443 58.8975V53.5838L27.7802 50.3017H32.0781V79H25.5921ZM39.8729 82.6141C40.4459 81.8327 40.8757 81.0187 41.1623 80.1722C41.4618 79.3386 41.6116 78.4074 41.6116 77.3785V72.8071H47.277V77.3394C47.277 78.6418 47.0035 79.8661 46.4565 81.0122C45.9225 82.1583 45.1932 83.1286 44.2685 83.9231L39.8729 82.6141ZM62.6908 79V71.5959L62.8081 70.9903V58.9366H62.6322L56.7324 68.2943H64.8398L65.758 68.1771H71.9509V73.1392H50.5981V68.7046L63.1597 50.5557H68.7861V79H62.6908ZM73.1035 71.0293V70.0721H79.4722V70.8731C79.4852 72.2015 79.8304 73.2043 80.5076 73.8816C81.1848 74.5588 82.1161 74.8975 83.3012 74.8975C84.4994 74.8975 85.4307 74.5588 86.0949 73.8816C86.7591 73.2043 87.0912 72.1038 87.0912 70.58C87.0912 69.1213 86.707 68.0469 85.9386 67.3566C85.1832 66.6663 84.1087 66.3212 82.7152 66.3212H79.8825V62.2382H82.5784C83.7506 62.2382 84.6688 61.9191 85.333 61.2809C86.0102 60.6297 86.3488 59.6269 86.3488 58.2724C86.3488 57.0481 86.0688 56.143 85.5088 55.5569C84.9618 54.9708 84.1804 54.6778 83.1645 54.6778C82.0835 54.6778 81.2695 54.9969 80.7225 55.635C80.1885 56.2732 79.9215 57.1849 79.9215 58.3701V58.9561H73.6505V58.2919C73.6375 55.8044 74.5166 53.8117 76.2878 52.3139C78.0591 50.8162 80.4099 50.0673 83.3403 50.0673C86.3619 50.0673 88.6932 50.7641 90.3342 52.1576C91.9752 53.5382 92.7957 55.316 92.7957 57.491C92.7957 59.0799 92.444 60.4279 91.7408 61.5349C91.0505 62.6419 90.0151 63.4689 88.6345 64.016V64.0941C90.0411 64.4457 91.2263 65.2076 92.1901 66.3798C93.1539 67.5389 93.6357 69.0562 93.6357 70.9317C93.6357 73.4974 92.7045 75.5617 90.8421 77.1246C88.9797 78.6874 86.4465 79.4689 83.2426 79.4689C80.0648 79.4689 77.5772 78.707 75.7799 77.1832C73.9956 75.6594 73.1035 73.6081 73.1035 71.0293ZM95.3744 59.9329C95.3744 56.9244 96.2991 54.5345 98.1485 52.7633C100.011 50.979 102.466 50.0868 105.514 50.0868C108.613 50.0868 111.12 51.0571 113.035 52.9977C114.949 54.9383 115.907 58.0445 115.907 62.3163V63.4494C115.907 68.2683 114.507 72.0908 111.706 74.917C108.919 77.7432 104.908 79.1758 99.6723 79.2149H98.5002V74.1551H99.516C102.733 74.1681 105.221 73.315 106.979 71.5959C108.737 69.8637 109.616 66.8942 109.616 62.6875L109.479 61.9842C109.479 59.1971 109.121 57.2891 108.405 56.2602C107.702 55.2183 106.718 54.6973 105.455 54.6973C104.296 54.6973 103.404 55.0945 102.779 55.889C102.166 56.6835 101.86 58.051 101.86 59.9916C101.86 61.6586 102.16 62.9089 102.759 63.7424C103.358 64.563 104.27 64.9732 105.494 64.9732C106.627 64.9732 107.578 64.563 108.346 63.7424C109.115 62.9219 109.499 61.8149 109.499 60.4213H110.886C110.886 62.935 110.209 64.9993 108.854 66.6142C107.5 68.2292 105.683 69.0367 103.404 69.0367C100.929 69.0367 98.969 68.2292 97.5234 66.6142C96.0908 64.9993 95.3744 62.7722 95.3744 59.9329Z" fill="black"/>
<rect x="129" y="57" width="34" height="16" rx="6" fill="#33FF00" fill-opacity="0.14"/>
<path d="M134.423 65.3424V64.0186L139.551 64.0235V65.3424H134.423ZM136.229 67.3061V62.0598H137.75V67.3061H136.229ZM140.314 68V67.1043L143.011 64.3385C143.306 64.0333 143.53 63.7544 143.68 63.5018C143.835 63.2492 143.912 62.9851 143.912 62.7095C143.912 62.4306 143.822 62.2025 143.641 62.0254C143.464 61.8449 143.213 61.7547 142.888 61.7547C142.56 61.7547 142.291 61.8613 142.081 62.0746C141.874 62.2879 141.764 62.5995 141.751 63.0097V63.0933H140.299V63.0047C140.299 62.3125 140.542 61.7531 141.028 61.3265C141.513 60.9 142.135 60.6867 142.893 60.6867C143.671 60.6867 144.276 60.8754 144.709 61.2527C145.145 61.63 145.364 62.0976 145.364 62.6553C145.364 63.1147 145.242 63.5281 144.999 63.8955C144.757 64.2597 144.442 64.637 144.054 65.0275L142.199 66.8927H145.541V68H140.314ZM146.013 66.0314V65.9625H147.445V66.0265C147.445 66.3644 147.549 66.6269 147.755 66.8139C147.962 67.0009 148.261 67.0945 148.651 67.0945C149.005 67.0945 149.291 66.9993 149.507 66.809C149.727 66.6187 149.837 66.3284 149.837 65.9379C149.837 65.554 149.713 65.267 149.463 65.0767C149.217 64.8831 148.887 64.7863 148.474 64.7863H147.76V63.7626H148.425C148.792 63.7626 149.083 63.6708 149.296 63.487C149.509 63.3 149.616 63.0425 149.616 62.7144C149.616 62.3863 149.525 62.1419 149.345 61.9811C149.165 61.8203 148.93 61.7399 148.641 61.7399C148.316 61.7399 148.064 61.822 147.883 61.986C147.706 62.1501 147.618 62.3863 147.618 62.6947V62.7537H146.185V62.6947C146.185 62.1435 146.409 61.671 146.855 61.2773C147.301 60.8836 147.9 60.6867 148.651 60.6867C149.448 60.6867 150.049 60.8688 150.452 61.233C150.859 61.5939 151.063 62.0483 151.063 62.5963C151.063 62.9408 150.971 63.259 150.787 63.551C150.603 63.8397 150.313 64.0661 149.916 64.2302V64.2499C150.339 64.3549 150.675 64.5583 150.925 64.8601C151.177 65.162 151.304 65.536 151.304 65.9822C151.304 66.6548 151.054 67.1847 150.556 67.5718C150.06 67.9557 149.422 68.1476 148.641 68.1476C147.795 68.1476 147.145 67.9508 146.692 67.5571C146.24 67.1601 146.013 66.6515 146.013 66.0314ZM154.134 68V62.2173L152.352 62.9162V61.7006L154.901 60.7507H155.566V68H154.134Z" fill="#1EEB89"/>
<path opacity="0.1" fill-rule="evenodd" clip-rule="evenodd" d="M16 114.527C16 114.527 24.8693 113.587 34.9532 115.845C54.1322 120.14 55.2263 112.274 62.338 108.482C68.8445 105.012 74.2331 107.129 81.4775 111.372C86.8207 114.502 94.6076 119.756 102.672 118.91C110.043 118.137 115.269 111.975 125.487 110.408C133.585 109.166 140.166 112.578 149.491 111.372C162.141 109.737 167.792 100.107 176.833 100.107C187.992 100.107 195.848 91.9626 206 91.9626C216.091 91.9626 217.461 96.7518 228.5 100.107C236.939 102.672 241 100.107 241 100.107V127.594H16V114.527Z" fill="url(#paint0_linear_2145_1891)"/>
<path d="M16 110.257C16 110.257 24.8693 109.33 34.9532 111.556C54.1322 115.789 55.2263 108.037 62.338 104.299C68.8445 100.88 74.2331 102.966 81.4775 107.148C86.8207 110.233 94.6076 115.41 102.672 114.577C110.043 113.815 115.269 107.742 125.487 106.198C133.585 104.974 140.166 108.336 149.491 107.148C162.141 105.536 167.792 96.0459 176.833 96.0459C187.992 96.0459 195.848 88 206 88C216.091 88 216.628 92.7392 227.667 96.0459C236.106 98.5739 241 96.0459 241 96.0459" stroke="#0DB97F" stroke-width="2.37097" stroke-linecap="round" stroke-linejoin="round"/>
<rect x="16.3125" y="16.3125" width="19.375" height="19.375" rx="3.4375" stroke="#E8E8E8" stroke-width="0.625"/>
<path d="M26 26.625C27.7259 26.625 29.125 25.2259 29.125 23.5C29.125 21.7741 27.7259 20.375 26 20.375C24.2741 20.375 22.875 21.7741 22.875 23.5C22.875 25.2259 24.2741 26.625 26 26.625Z" stroke="#0DB97F" stroke-width="1.25" stroke-linecap="round" stroke-linejoin="round"/>
<path d="M31 31.625C31 30.2989 30.4732 29.0271 29.5355 28.0895C28.5979 27.1518 27.3261 26.625 26 26.625C24.6739 26.625 23.4021 27.1518 22.4645 28.0895C21.5268 29.0271 21 30.2989 21 31.625" stroke="#0DB97F" stroke-width="1.25" stroke-linecap="round" stroke-linejoin="round"/>
<path d="M40.1348 22.7754V21.4688H47.125V22.7754H44.5059V30H42.7598V22.7754H40.1348ZM47.0605 26.9531V26.7656C47.0605 25.793 47.3594 25.0137 47.957 24.4277C48.5547 23.8418 49.3379 23.5488 50.3066 23.5488C51.2793 23.5488 52.0645 23.8418 52.6621 24.4277C53.2598 25.0137 53.5586 25.793 53.5586 26.7656V26.9531C53.5586 27.9258 53.2598 28.707 52.6621 29.2969C52.0645 29.8828 51.2793 30.1758 50.3066 30.1758C49.3379 30.1758 48.5547 29.8828 47.957 29.2969C47.3594 28.707 47.0605 27.9258 47.0605 26.9531ZM48.7891 26.7012V27.0176C48.7891 27.6035 48.9199 28.0645 49.1816 28.4004C49.4434 28.7363 49.8184 28.9043 50.3066 28.9043C50.7988 28.9043 51.1738 28.7363 51.4316 28.4004C51.6934 28.0645 51.8242 27.6035 51.8242 27.0176V26.7012C51.8242 26.1191 51.6914 25.6602 51.4258 25.3242C51.1641 24.9883 50.791 24.8203 50.3066 24.8203C49.8223 24.8203 49.4473 24.9883 49.1816 25.3242C48.9199 25.6602 48.7891 26.1191 48.7891 26.7012ZM54.0156 24.9434V23.7246H57.877V24.9434H54.0156ZM54.9883 28.1836V24.3809L54.9941 24.2109V22.3477H56.6758V28.1602C56.6758 28.4375 56.7285 28.6328 56.834 28.7461C56.9395 28.8555 57.0898 28.9102 57.2852 28.9102C57.3828 28.9102 57.4785 28.8984 57.5723 28.875C57.666 28.8516 57.7578 28.8223 57.8477 28.7871V29.9941C57.7539 30.041 57.625 30.082 57.4609 30.1172C57.2969 30.1562 57.1191 30.1758 56.9277 30.1758C56.3418 30.1758 55.8711 30.0156 55.5156 29.6953C55.1641 29.375 54.9883 28.8711 54.9883 28.1836ZM58.6152 28.1543C58.6152 27.4707 58.8906 26.9531 59.4414 26.6016C59.9922 26.2461 60.6855 26.0664 61.5215 26.0625H62.7695V25.6699C62.7695 25.3809 62.6895 25.1484 62.5293 24.9727C62.373 24.793 62.0996 24.7031 61.709 24.7031C61.3184 24.7031 61.0391 24.7812 60.8711 24.9375C60.707 25.0898 60.625 25.2734 60.625 25.4883V25.5586H58.9492V25.4883C58.9492 24.9414 59.207 24.4824 59.7227 24.1113C60.2422 23.7363 60.9238 23.5488 61.7676 23.5488C62.6113 23.5488 63.2715 23.7246 63.748 24.0762C64.2246 24.4238 64.4629 24.957 64.4629 25.6758V28.6055C64.4629 28.8594 64.4844 29.0996 64.5273 29.3262C64.5703 29.5488 64.6289 29.7422 64.7031 29.9062V30H63.0449C62.998 29.9062 62.9551 29.7852 62.916 29.6367C62.877 29.4844 62.8496 29.3359 62.834 29.1914C62.709 29.4336 62.4727 29.6484 62.125 29.8359C61.7812 30.0234 61.3516 30.1172 60.8359 30.1172C60.2148 30.1172 59.6895 29.9531 59.2598 29.625C58.8301 29.293 58.6152 28.8027 58.6152 28.1543ZM60.3086 28.0312C60.3086 28.3164 60.3926 28.543 60.5605 28.7109C60.7285 28.8789 60.9922 28.9629 61.3516 28.9629C61.7383 28.9629 62.0703 28.8418 62.3477 28.5996C62.6289 28.3535 62.7695 28.0723 62.7695 27.7559V27.0938H61.7207C61.248 27.0938 60.8945 27.1777 60.6602 27.3457C60.4258 27.5098 60.3086 27.7383 60.3086 28.0312ZM66.1211 30V21.0176H67.8086V30H66.1211ZM72.0098 26.959V26.7715C72.0098 25.8418 72.2637 25.082 72.7715 24.4922C73.2793 23.9023 73.9453 23.6074 74.7695 23.6074C75.1758 23.6074 75.5273 23.6777 75.8242 23.8184C76.1211 23.959 76.3516 24.1465 76.5156 24.3809V21.0176H78.2031V30H76.6035L76.5625 29.2676H76.5332C76.3965 29.5098 76.1699 29.7129 75.8535 29.877C75.541 30.0371 75.1797 30.1172 74.7695 30.1172C73.918 30.1172 73.2441 29.8223 72.748 29.2324C72.2559 28.6426 72.0098 27.8848 72.0098 26.959ZM73.7383 27.0117C73.7383 27.5508 73.8574 27.9922 74.0957 28.3359C74.334 28.6797 74.6934 28.8516 75.1738 28.8516C75.502 28.8516 75.7793 28.7637 76.0059 28.5879C76.2363 28.4082 76.4043 28.1973 76.5098 27.9551V25.7695C76.4082 25.5234 76.2441 25.3125 76.0176 25.1367C75.7949 24.9609 75.5137 24.873 75.1738 24.873C74.6973 24.873 74.3379 25.0469 74.0957 25.3945C73.8574 25.7383 73.7383 26.1777 73.7383 26.7129V27.0117ZM79.4512 26.9531V26.7656C79.4512 25.8047 79.7422 25.0293 80.3242 24.4395C80.9062 23.8457 81.6562 23.5488 82.5742 23.5488C83.5 23.5488 84.2227 23.8262 84.7422 24.3809C85.2656 24.9355 85.5273 25.6973 85.5273 26.666V27.2754H80.6113V26.1914H83.8457V26.0859C83.8418 25.7344 83.7344 25.4258 83.5234 25.1602C83.3125 24.8945 82.9922 24.7617 82.5625 24.7617C82.1016 24.7617 81.748 24.9414 81.502 25.3008C81.2559 25.6562 81.1328 26.125 81.1328 26.707V27.0117C81.1328 27.5859 81.2637 28.0527 81.5254 28.4121C81.791 28.7676 82.1855 28.9453 82.709 28.9453C83.0566 28.9453 83.3594 28.8613 83.6172 28.6934C83.875 28.5254 84.084 28.332 84.2441 28.1133L85.4043 28.9102C85.2051 29.2617 84.8691 29.5605 84.3965 29.8066C83.9277 30.0527 83.3711 30.1758 82.7266 30.1758C81.6953 30.1758 80.8906 29.8809 80.3125 29.291C79.7383 28.6973 79.4512 27.918 79.4512 26.9531ZM89.2949 28.1543C89.2949 27.4707 89.5703 26.9531 90.1211 26.6016C90.6719 26.2461 91.3652 26.0664 92.2012 26.0625H93.4492V25.6699C93.4492 25.3809 93.3691 25.1484 93.209 24.9727C93.0527 24.793 92.7793 24.7031 92.3887 24.7031C91.998 24.7031 91.7188 24.7812 91.5508 24.9375C91.3867 25.0898 91.3047 25.2734 91.3047 25.4883V25.5586H89.6289V25.4883C89.6289 24.9414 89.8867 24.4824 90.4023 24.1113C90.9219 23.7363 91.6035 23.5488 92.4473 23.5488C93.291 23.5488 93.9512 23.7246 94.4277 24.0762C94.9043 24.4238 95.1426 24.957 95.1426 25.6758V28.6055C95.1426 28.8594 95.1641 29.0996 95.207 29.3262C95.25 29.5488 95.3086 29.7422 95.3828 29.9062V30H93.7246C93.6777 29.9062 93.6348 29.7852 93.5957 29.6367C93.5566 29.4844 93.5293 29.3359 93.5137 29.1914C93.3887 29.4336 93.1523 29.6484 92.8047 29.8359C92.4609 30.0234 92.0312 30.1172 91.5156 30.1172C90.8945 30.1172 90.3691 29.9531 89.9395 29.625C89.5098 29.293 89.2949 28.8027 89.2949 28.1543ZM90.9883 28.0312C90.9883 28.3164 91.0723 28.543 91.2402 28.7109C91.4082 28.8789 91.6719 28.9629 92.0312 28.9629C92.418 28.9629 92.75 28.8418 93.0273 28.5996C93.3086 28.3535 93.4492 28.0723 93.4492 27.7559V27.0938H92.4004C91.9277 27.0938 91.5742 27.1777 91.3398 27.3457C91.1055 27.5098 90.9883 27.7383 90.9883 28.0312ZM95.9805 24.9434V23.7246H99.8418V24.9434H95.9805ZM96.9531 28.1836V24.3809L96.959 24.2109V22.3477H98.6406V28.1602C98.6406 28.4375 98.6934 28.6328 98.7988 28.7461C98.9043 28.8555 99.0547 28.9102 99.25 28.9102C99.3477 28.9102 99.4434 28.8984 99.5371 28.875C99.6309 28.8516 99.7227 28.8223 99.8125 28.7871V29.9941C99.7188 30.041 99.5898 30.082 99.4258 30.1172C99.2617 30.1562 99.084 30.1758 98.8926 30.1758C98.3066 30.1758 97.8359 30.0156 97.4805 29.6953C97.1289 29.375 96.9531 28.8711 96.9531 28.1836ZM100.557 26.9531V26.7656C100.557 25.8047 100.848 25.0293 101.43 24.4395C102.012 23.8457 102.762 23.5488 103.68 23.5488C104.605 23.5488 105.328 23.8262 105.848 24.3809C106.371 24.9355 106.633 25.6973 106.633 26.666V27.2754H101.717V26.1914H104.951V26.0859C104.947 25.7344 104.84 25.4258 104.629 25.1602C104.418 24.8945 104.098 24.7617 103.668 24.7617C103.207 24.7617 102.854 24.9414 102.607 25.3008C102.361 25.6562 102.238 26.125 102.238 26.707V27.0117C102.238 27.5859 102.369 28.0527 102.631 28.4121C102.896 28.7676 103.291 28.9453 103.814 28.9453C104.162 28.9453 104.465 28.8613 104.723 28.6934C104.98 28.5254 105.189 28.332 105.35 28.1133L106.51 28.9102C106.311 29.2617 105.975 29.5605 105.502 29.8066C105.033 30.0527 104.477 30.1758 103.832 30.1758C102.801 30.1758 101.996 29.8809 101.418 29.291C100.844 28.6973 100.557 27.918 100.557 26.9531ZM107.793 30V23.7246H109.387L109.428 24.4512H109.463C109.643 24.1934 109.895 23.9883 110.219 23.8359C110.547 23.6797 110.906 23.6016 111.297 23.6016C111.957 23.6016 112.492 23.7891 112.902 24.1641C113.312 24.5352 113.518 25.1797 113.518 26.0977V30H111.83V26.0566C111.83 25.6309 111.738 25.3301 111.555 25.1543C111.371 24.9785 111.111 24.8906 110.775 24.8906C110.498 24.8906 110.244 24.9707 110.014 25.1309C109.783 25.2871 109.605 25.502 109.48 25.7754V30H107.793ZM114.713 26.959V26.7715C114.713 25.8418 114.967 25.082 115.475 24.4922C115.982 23.9023 116.648 23.6074 117.473 23.6074C117.879 23.6074 118.23 23.6777 118.527 23.8184C118.824 23.959 119.055 24.1465 119.219 24.3809V21.0176H120.906V30H119.307L119.266 29.2676H119.236C119.1 29.5098 118.873 29.7129 118.557 29.877C118.244 30.0371 117.883 30.1172 117.473 30.1172C116.621 30.1172 115.947 29.8223 115.451 29.2324C114.959 28.6426 114.713 27.8848 114.713 26.959ZM116.441 27.0117C116.441 27.5508 116.561 27.9922 116.799 28.3359C117.037 28.6797 117.396 28.8516 117.877 28.8516C118.205 28.8516 118.482 28.7637 118.709 28.5879C118.939 28.4082 119.107 28.1973 119.213 27.9551V25.7695C119.111 25.5234 118.947 25.3125 118.721 25.1367C118.498 24.9609 118.217 24.873 117.877 24.873C117.4 24.873 117.041 25.0469 116.799 25.3945C116.561 25.7383 116.441 26.1777 116.441 26.7129V27.0117ZM122.529 30V23.7246H124.223V30H122.529ZM122.383 22.0137C122.383 21.7598 122.469 21.5469 122.641 21.375C122.812 21.2031 123.057 21.1172 123.373 21.1172C123.689 21.1172 123.934 21.2031 124.105 21.375C124.277 21.5469 124.363 21.7598 124.363 22.0137C124.363 22.2715 124.277 22.4863 124.105 22.6582C123.934 22.8301 123.689 22.916 123.373 22.916C123.057 22.916 122.812 22.8301 122.641 22.6582C122.469 22.4863 122.383 22.2715 122.383 22.0137ZM125.84 30V23.7246H127.434L127.475 24.4629H127.51C127.705 24.1855 127.961 23.9746 128.277 23.8301C128.594 23.6816 128.936 23.6074 129.303 23.6074C129.748 23.6074 130.133 23.6992 130.457 23.8828C130.781 24.0625 131.021 24.3301 131.178 24.6855H131.201C131.428 24.3262 131.725 24.0566 132.092 23.877C132.459 23.6973 132.852 23.6074 133.27 23.6074C133.918 23.6074 134.438 23.8047 134.828 24.1992C135.223 24.5898 135.42 25.2461 135.42 26.168V30H133.727V26.0918C133.727 25.6777 133.641 25.375 133.469 25.1836C133.301 24.9922 133.053 24.8945 132.725 24.8906C132.443 24.8906 132.195 24.9707 131.98 25.1309C131.77 25.291 131.602 25.5078 131.477 25.7812V30H129.777V26.1035C129.777 25.6816 129.691 25.375 129.52 25.1836C129.348 24.9883 129.098 24.8906 128.77 24.8906C128.484 24.8906 128.236 24.9707 128.025 25.1309C127.818 25.2871 127.652 25.5039 127.527 25.7812V30H125.84ZM136.615 26.9531V26.7656C136.615 25.8047 136.906 25.0293 137.488 24.4395C138.07 23.8457 138.82 23.5488 139.738 23.5488C140.664 23.5488 141.387 23.8262 141.906 24.3809C142.43 24.9355 142.691 25.6973 142.691 26.666V27.2754H137.775V26.1914H141.01V26.0859C141.006 25.7344 140.898 25.4258 140.688 25.1602C140.477 24.8945 140.156 24.7617 139.727 24.7617C139.266 24.7617 138.912 24.9414 138.666 25.3008C138.42 25.6562 138.297 26.125 138.297 26.707V27.0117C138.297 27.5859 138.428 28.0527 138.689 28.4121C138.955 28.7676 139.35 28.9453 139.873 28.9453C140.221 28.9453 140.523 28.8613 140.781 28.6934C141.039 28.5254 141.248 28.332 141.408 28.1133L142.568 28.9102C142.369 29.2617 142.033 29.5605 141.561 29.8066C141.092 30.0527 140.535 30.1758 139.891 30.1758C138.859 30.1758 138.055 29.8809 137.477 29.291C136.902 28.6973 136.615 27.918 136.615 26.9531ZM143.852 30V23.7246H145.445L145.486 24.4512H145.521C145.701 24.1934 145.953 23.9883 146.277 23.8359C146.605 23.6797 146.965 23.6016 147.355 23.6016C148.016 23.6016 148.551 23.7891 148.961 24.1641C149.371 24.5352 149.576 25.1797 149.576 26.0977V30H147.889V26.0566C147.889 25.6309 147.797 25.3301 147.613 25.1543C147.43 24.9785 147.17 24.8906 146.834 24.8906C146.557 24.8906 146.303 24.9707 146.072 25.1309C145.842 25.2871 145.664 25.502 145.539 25.7754V30H143.852ZM150.32 24.9434V23.7246H154.182V24.9434H150.32ZM151.293 28.1836V24.3809L151.299 24.2109V22.3477H152.98V28.1602C152.98 28.4375 153.033 28.6328 153.139 28.7461C153.244 28.8555 153.395 28.9102 153.59 28.9102C153.688 28.9102 153.783 28.8984 153.877 28.875C153.971 28.8516 154.062 28.8223 154.152 28.7871V29.9941C154.059 30.041 153.93 30.082 153.766 30.1172C153.602 30.1562 153.424 30.1758 153.232 30.1758C152.646 30.1758 152.176 30.0156 151.82 29.6953C151.469 29.375 151.293 28.8711 151.293 28.1836ZM154.779 26.9531V26.7656C154.779 25.793 155.078 25.0137 155.676 24.4277C156.273 23.8418 157.057 23.5488 158.025 23.5488C158.998 23.5488 159.783 23.8418 160.381 24.4277C160.979 25.0137 161.277 25.793 161.277 26.7656V26.9531C161.277 27.9258 160.979 28.707 160.381 29.2969C159.783 29.8828 158.998 30.1758 158.025 30.1758C157.057 30.1758 156.273 29.8828 155.676 29.2969C155.078 28.707 154.779 27.9258 154.779 26.9531ZM156.508 26.7012V27.0176C156.508 27.6035 156.639 28.0645 156.9 28.4004C157.162 28.7363 157.537 28.9043 158.025 28.9043C158.518 28.9043 158.893 28.7363 159.15 28.4004C159.412 28.0645 159.543 27.6035 159.543 27.0176V26.7012C159.543 26.1191 159.41 25.6602 159.145 25.3242C158.883 24.9883 158.51 24.8203 158.025 24.8203C157.541 24.8203 157.166 24.9883 156.9 25.3242C156.639 25.6602 156.508 26.1191 156.508 26.7012ZM162.139 28.043H163.809V28.1309C163.809 28.4355 163.916 28.6602 164.131 28.8047C164.346 28.9492 164.635 29.0215 164.998 29.0215C165.373 29.0215 165.654 28.9551 165.842 28.8223C166.033 28.6855 166.129 28.502 166.129 28.2715C166.129 28.041 166.037 27.8711 165.854 27.7617C165.67 27.6484 165.217 27.5215 164.494 27.3809C163.744 27.2363 163.193 27.0078 162.842 26.6953C162.49 26.3789 162.314 25.9688 162.314 25.4648C162.314 24.8867 162.555 24.4219 163.035 24.0703C163.516 23.7188 164.166 23.543 164.986 23.543C165.803 23.543 166.455 23.7246 166.943 24.0879C167.436 24.4512 167.682 24.9375 167.682 25.5469V25.6172H166.018V25.5352C166.018 25.2773 165.932 25.0742 165.76 24.9258C165.592 24.7773 165.332 24.7031 164.98 24.7031C164.629 24.7031 164.373 24.7637 164.213 24.8848C164.057 25.0059 163.979 25.1621 163.979 25.3535C163.979 25.5488 164.07 25.7051 164.254 25.8223C164.438 25.9395 164.9 26.0684 165.643 26.209C166.389 26.3535 166.936 26.5801 167.283 26.8887C167.635 27.1973 167.811 27.6191 167.811 28.1543C167.811 28.7715 167.572 29.2637 167.096 29.6309C166.623 29.9941 165.926 30.1758 165.004 30.1758C164.086 30.1758 163.379 29.9941 162.883 29.6309C162.387 29.2637 162.139 28.7559 162.139 28.1074V28.043Z" fill="#202124"/>
<g opacity="0.5">
<path d="M178.08 24.73C177.729 24.73 177.445 25.0138 177.445 25.365V28.5399C177.445 28.8912 177.729 29.1749 178.08 29.1749C178.431 29.1749 178.715 28.8912 178.715 28.5399V25.365C178.715 25.0138 178.431 24.73 178.08 24.73Z" fill="#202124"/>
<path d="M178.715 23.4601C178.715 23.8107 178.431 24.0951 178.08 24.0951C177.729 24.0951 177.445 23.8107 177.445 23.4601C177.445 23.1094 177.729 22.8251 178.08 22.8251C178.431 22.8251 178.715 23.1094 178.715 23.4601Z" fill="#202124"/>
<path fill-rule="evenodd" clip-rule="evenodd" d="M178.08 20.9201C179.437 20.9201 180.713 21.448 181.671 22.4084C182.632 23.3668 183.16 24.6428 183.16 26C183.16 27.3573 182.632 28.6313 181.671 29.5916C180.713 30.552 179.437 31.0799 178.08 31.0799C176.722 31.0799 175.449 30.552 174.488 29.5916C173.528 28.6332 173 27.3573 173 26C173 24.6428 173.528 23.3668 174.488 22.4084C175.447 21.448 176.722 20.9201 178.08 20.9201ZM174.27 26C174.27 28.1014 175.978 29.8099 178.08 29.8099C180.181 29.8099 181.89 28.1014 181.89 26C181.89 23.8986 180.181 22.1901 178.08 22.1901C175.978 22.1901 174.27 23.8986 174.27 26Z" fill="#202124"/>
</g>
<defs>
<linearGradient id="paint0_linear_2145_1891" x1="56.6633" y1="110.042" x2="56.6633" y2="127.594" gradientUnits="userSpaceOnUse">
<stop stop-color="#00929D"/>
<stop offset="1" stop-color="white" stop-opacity="0.01"/>
</linearGradient>
</defs>
</svg>
