<svg width="145" height="48" viewBox="0 0 145 48" fill="none" xmlns="http://www.w3.org/2000/svg">
<path d="M16.5165 38.4742C15.8237 39.175 14.448 39.175 13.7577 38.4742L1.3443 25.9107C0.651508 25.2125 0.651508 23.8185 1.3443 23.1202L13.7577 10.5542C14.4505 9.85595 15.8262 9.85595 16.5165 10.5542L28.9299 23.1202C29.6227 23.8185 29.6227 25.2125 28.9299 25.9107L16.5165 38.4767V38.4742Z" fill="#005F98"/>
<path d="M23.704 37.4437C23.0112 38.1444 21.6355 38.1444 20.9452 37.4437L8.5318 24.8802C7.83901 24.1819 7.83901 22.7879 8.5318 22.0897L20.9452 9.52369C21.638 8.82544 23.0137 8.82544 23.704 9.52369L36.1174 22.0897C36.8102 22.7879 36.8102 24.1819 36.1174 24.8802L23.704 37.4462V37.4437Z" fill="#00929D"/>
<path d="M30.892 38.069C30.1992 38.7698 28.8235 38.7698 28.1332 38.069L15.7198 25.5056C15.027 24.8073 15.027 23.4133 15.7198 22.7151L28.1332 10.1491C28.826 9.45081 30.2017 9.45081 30.892 10.1491L43.3054 22.7151C43.9982 23.4133 43.9982 24.8073 43.3054 25.5056L30.892 38.069Z" fill="#0DB97F"/>
<path d="M63.9011 38.4214C61.6793 38.4214 59.764 38.0638 58.1551 37.3488C56.5718 36.6082 55.1162 35.4973 53.7882 34.0161L57.6955 30.1472C58.5637 31.1431 59.5214 31.922 60.5684 32.4839C61.641 33.0202 62.8796 33.2883 64.2842 33.2883C65.561 33.2883 66.5442 33.0585 67.2338 32.5988C67.9488 32.1391 68.3063 31.5007 68.3063 30.6835C68.3063 29.9429 68.0765 29.3427 67.6168 28.8831C67.1571 28.4234 66.5442 28.0276 65.7781 27.6956C65.0375 27.3636 64.2076 27.0444 63.2882 26.7379C62.3944 26.4315 61.5006 26.0867 60.6067 25.7036C59.7129 25.295 58.883 24.797 58.1168 24.2097C57.3762 23.5968 56.7761 22.8434 56.3164 21.9496C55.8567 21.0302 55.6269 19.881 55.6269 18.502C55.6269 16.8421 56.0227 15.412 56.8144 14.2117C57.6316 13.0114 58.7553 12.1048 60.1854 11.4919C61.6155 10.8535 63.2627 10.5343 65.1269 10.5343C67.0167 10.5343 68.7405 10.8663 70.2983 11.5302C71.8816 12.1942 73.184 13.1008 74.2055 14.25L70.2983 18.119C69.4811 17.2762 68.6511 16.6505 67.8084 16.2419C66.9912 15.8333 66.059 15.629 65.012 15.629C63.9649 15.629 63.135 15.8333 62.5221 16.2419C61.9092 16.625 61.6027 17.1868 61.6027 17.9274C61.6027 18.6169 61.8326 19.1788 62.2922 19.6129C62.7519 20.0215 63.352 20.379 64.0926 20.6855C64.8588 20.9919 65.6887 21.2984 66.5826 21.6048C67.5019 21.9113 68.4085 22.2688 69.3023 22.6774C70.1961 23.086 71.0133 23.6095 71.7539 24.248C72.5201 24.8609 73.133 25.6526 73.5926 26.623C74.0523 27.5679 74.2821 28.7426 74.2821 30.1472C74.2821 32.7265 73.3628 34.7567 71.5241 36.2379C69.6854 37.6935 67.1444 38.4214 63.9011 38.4214ZM77.5768 38V10.1895H83.4377V38H77.5768ZM95.3411 38.3831C93.6301 38.3831 92.0978 37.9617 90.7443 37.119C89.4164 36.2762 88.3566 35.127 87.5649 33.6714C86.7988 32.2157 86.4157 30.5558 86.4157 28.6915C86.4157 26.8273 86.7988 25.1673 87.5649 23.7117C88.3566 22.256 89.4164 21.1069 90.7443 20.2641C92.0978 19.4214 93.6301 19 95.3411 19C96.5925 19 97.7161 19.2426 98.7121 19.7278C99.7336 20.213 100.564 20.8898 101.202 21.7581C101.84 22.6008 102.198 23.5712 102.275 24.6694V32.7137C102.198 33.8118 101.84 34.795 101.202 35.6633C100.589 36.506 99.7719 37.17 98.7504 37.6552C97.7289 38.1405 96.5925 38.3831 95.3411 38.3831ZM96.5286 33.0968C97.78 33.0968 98.7887 32.6882 99.5548 31.871C100.321 31.0282 100.704 29.9684 100.704 28.6915C100.704 27.8233 100.525 27.0571 100.168 26.3931C99.8357 25.7292 99.3505 25.2184 98.7121 24.8609C98.0992 24.4778 97.3841 24.2863 96.5669 24.2863C95.7497 24.2863 95.0219 24.4778 94.3835 24.8609C93.7706 25.2184 93.2726 25.7292 92.8895 26.3931C92.532 27.0571 92.3532 27.8233 92.3532 28.6915C92.3532 29.5343 92.532 30.2876 92.8895 30.9516C93.247 31.6156 93.745 32.1391 94.3835 32.5222C95.0219 32.9052 95.737 33.0968 96.5286 33.0968ZM100.474 38V32.9819L101.355 28.4617L100.474 23.9415V19.3831H106.22V38H100.474ZM112.99 38V11.6835H118.851V38H112.99ZM108.776 24.3629V19.3831H123.065V24.3629H108.776ZM134.466 38.4214C132.449 38.4214 130.648 38.0128 129.065 37.1956C127.507 36.3528 126.282 35.1909 125.388 33.7097C124.494 32.2285 124.047 30.5558 124.047 28.6915C124.047 26.8273 124.481 25.1673 125.349 23.7117C126.243 22.2305 127.444 21.0685 128.95 20.2258C130.457 19.3831 132.155 18.9617 134.045 18.9617C135.884 18.9617 137.505 19.3575 138.91 20.1492C140.314 20.9409 141.413 22.039 142.204 23.4435C143.021 24.8481 143.43 26.457 143.43 28.2702C143.43 28.6022 143.405 28.9597 143.353 29.3427C143.328 29.7003 143.264 30.1216 143.162 30.6069L127.112 30.6452V26.623L140.672 26.5847L138.144 28.2702C138.118 27.1976 137.952 26.3165 137.646 25.627C137.339 24.912 136.88 24.3757 136.267 24.0181C135.679 23.6351 134.952 23.4435 134.083 23.4435C133.164 23.4435 132.36 23.6606 131.67 24.0948C131.006 24.5034 130.482 25.0907 130.099 25.8569C129.742 26.623 129.563 27.5551 129.563 28.6532C129.563 29.7513 129.755 30.6962 130.138 31.4879C130.546 32.254 131.108 32.8542 131.823 33.2883C132.564 33.6969 133.432 33.9012 134.428 33.9012C135.347 33.9012 136.177 33.748 136.918 33.4415C137.659 33.1095 138.31 32.6243 138.872 31.9859L142.089 35.2036C141.17 36.2762 140.059 37.0806 138.757 37.6169C137.454 38.1532 136.024 38.4214 134.466 38.4214Z" fill="#212223"/>
</svg>
